# xmcd
#
# Track frame offsets:
#	150
#	12319
#	30165
#	41352
#	57074
#	63712
#	73903
#	83404
#	91524
#	105959
#	117940
#	125024
#	137075
#	146291
#	157708
#	180688
#
# Disc length: 2671 seconds
#
# Revision: 0
# Processed by: cddbd v1.5.1PL2 Copyright (c) Steve Scherf et al.
# Submitted via: audiograbber 1.83.01
#
DISCID=bf0a6d10
DTITLE=Chor des Martin - Luther - Gymnasium - 10 Jahre
DYEAR=2003
DGENRE=rock
TTITLE0=Ein schöner Tag
TTITLE1=Frederick Chopin: "Nocturne"
TTITLE2=Guiseppe Verdi:"Nabuco"
TTITLE3=Reality
TTITLE4=Yesterday
TTITLE5=Liebeslied
TTITLE6=Nobody Knows
TTITLE7=Somebody Loves Me
TTITLE8=Imagine
TTITLE9=Lady Be Good
TTITLE10=Sentimental Journey
TTITLE11=Broken Heart Blues
TTITLE12=Let`s Twist Again
TTITLE13=Ain`t No Rock
TTITLE14=O Happy Day
TTITLE15=Winds of Change
EXTD=
EXTT0=
EXTT1=
EXTT2=
EXTT3=
EXTT4=
EXTT5=
EXTT6=
EXTT7=
EXTT8=
EXTT9=
EXTT10=
EXTT11=
EXTT12=
EXTT13=
EXTT14=
EXTT15=
PLAYORDER=
